<mxfile host="www.draw.io" modified="2020-02-14T16:05:24.946Z" agent="Mozilla/5.0 (X11; Linux x86_64) AppleWebKit/537.36 (KHTML, like Gecko) Chrome/80.0.3987.87 Safari/537.36" etag="E4M3Tim5-a87LikQOaqI" version="12.7.0" type="github">
  <diagram id="l5GeEBfZHHssQlTQPTFa" name="Page-1">
    <mxGraphModel dx="3085" dy="1968" grid="1" gridSize="10" guides="1" tooltips="1" connect="1" arrows="1" fold="1" page="1" pageScale="1" pageWidth="1920" pageHeight="1200" math="0" shadow="1">
      <root>
        <mxCell id="0"/>
        <mxCell id="1" parent="0"/>
        <mxCell id="Bj6Bwo_ux3LitwSMZHOG-42" value="" style="group" vertex="1" connectable="0" parent="1">
          <mxGeometry x="95" y="9.5" width="1790" height="1180.22" as="geometry"/>
        </mxCell>
        <mxCell id="af_4JqwX-g0Q7I4TWF5g-1" value="" style="shape=mxgraph.cisco.servers.server_with_router;html=1;dashed=0;fillColor=#036897;strokeColor=#ffffff;strokeWidth=2;verticalLabelPosition=bottom;verticalAlign=top" parent="1" vertex="1">
          <mxGeometry x="884.0109160835673" y="418.78633505385625" width="153.35138615069877" height="258.2533001113921" as="geometry"/>
        </mxCell>
        <mxCell id="af_4JqwX-g0Q7I4TWF5g-19" value="" style="edgeStyle=orthogonalEdgeStyle;rounded=0;orthogonalLoop=1;jettySize=auto;html=1;shape=link;targetPortConstraint=west;" parent="1" source="af_4JqwX-g0Q7I4TWF5g-1" target="af_4JqwX-g0Q7I4TWF5g-11" edge="1">
          <mxGeometry relative="1" as="geometry"/>
        </mxCell>
        <mxCell id="af_4JqwX-g0Q7I4TWF5g-16" value="" style="edgeStyle=orthogonalEdgeStyle;rounded=0;orthogonalLoop=1;jettySize=auto;html=1;shape=link;" parent="1" source="af_4JqwX-g0Q7I4TWF5g-1" target="af_4JqwX-g0Q7I4TWF5g-14" edge="1">
          <mxGeometry relative="1" as="geometry"/>
        </mxCell>
        <mxCell id="Bj6Bwo_ux3LitwSMZHOG-36" style="edgeStyle=orthogonalEdgeStyle;shape=link;rounded=0;orthogonalLoop=1;jettySize=auto;html=1;sourcePortConstraint=north;" edge="1" parent="1" source="Bj6Bwo_ux3LitwSMZHOG-20" target="af_4JqwX-g0Q7I4TWF5g-1">
          <mxGeometry relative="1" as="geometry"/>
        </mxCell>
        <mxCell id="Bj6Bwo_ux3LitwSMZHOG-35" style="edgeStyle=orthogonalEdgeStyle;rounded=0;orthogonalLoop=1;jettySize=auto;html=1;shape=link;sourcePortConstraint=north;" edge="1" parent="1" source="Bj6Bwo_ux3LitwSMZHOG-28" target="af_4JqwX-g0Q7I4TWF5g-1">
          <mxGeometry relative="1" as="geometry"/>
        </mxCell>
        <mxCell id="Bj6Bwo_ux3LitwSMZHOG-41" style="edgeStyle=orthogonalEdgeStyle;shape=link;rounded=0;orthogonalLoop=1;jettySize=auto;html=1;" edge="1" parent="1" source="Bj6Bwo_ux3LitwSMZHOG-39" target="af_4JqwX-g0Q7I4TWF5g-1">
          <mxGeometry relative="1" as="geometry"/>
        </mxCell>
        <mxCell id="Bj6Bwo_ux3LitwSMZHOG-44" value="" style="group" vertex="1" connectable="0" parent="1">
          <mxGeometry x="35" y="790.2118242260921" width="1850.0000000000002" height="337.84817577390834" as="geometry"/>
        </mxCell>
        <mxCell id="af_4JqwX-g0Q7I4TWF5g-32" value="TEAM 2 SUBNET" style="whiteSpace=wrap;html=1;fillColor=#ffe6cc;fontSize=14;strokeColor=#d79b00;verticalAlign=bottom;flipV=0;flipH=0;align=center;labelPosition=center;verticalLabelPosition=middle;direction=south;" parent="Bj6Bwo_ux3LitwSMZHOG-44" vertex="1">
          <mxGeometry x="635.1505542253765" y="0.004602734704548267" width="581.0721098670801" height="335.72929014480974" as="geometry"/>
        </mxCell>
        <mxCell id="af_4JqwX-g0Q7I4TWF5g-14" value="TEAM 2&lt;br&gt;INTERFACE" style="shape=mxgraph.cisco.computers_and_peripherals.pc_adapter_card;html=1;dashed=0;fillColor=#036897;strokeColor=#ffffff;strokeWidth=2;verticalLabelPosition=middle;verticalAlign=top;labelPosition=right;align=left;" parent="Bj6Bwo_ux3LitwSMZHOG-44" vertex="1">
          <mxGeometry x="884.3659257905908" y="29.70373224751463" width="82.6413667366514" height="111.04891904789861" as="geometry"/>
        </mxCell>
        <mxCell id="af_4JqwX-g0Q7I4TWF5g-82" style="edgeStyle=orthogonalEdgeStyle;rounded=0;orthogonalLoop=1;jettySize=auto;html=1;endArrow=none;endFill=0;strokeWidth=3;sourcePortConstraint=north;" parent="Bj6Bwo_ux3LitwSMZHOG-44" source="af_4JqwX-g0Q7I4TWF5g-34" target="af_4JqwX-g0Q7I4TWF5g-14" edge="1">
          <mxGeometry relative="1" as="geometry"/>
        </mxCell>
        <mxCell id="af_4JqwX-g0Q7I4TWF5g-34" value="" style="shape=mxgraph.cisco.computers_and_peripherals.laptop;html=1;pointerEvents=1;dashed=0;fillColor=#036897;strokeColor=#ffffff;strokeWidth=2;verticalLabelPosition=bottom;verticalAlign=top;align=center;outlineConnect=0;" parent="Bj6Bwo_ux3LitwSMZHOG-44" vertex="1">
          <mxGeometry x="1055.6143329251959" y="209.1897758249323" width="116.21442197341607" height="78.76725653397459" as="geometry"/>
        </mxCell>
        <mxCell id="af_4JqwX-g0Q7I4TWF5g-81" style="edgeStyle=orthogonalEdgeStyle;rounded=0;orthogonalLoop=1;jettySize=auto;html=1;endArrow=none;endFill=0;strokeWidth=3;targetPortConstraint=west;" parent="Bj6Bwo_ux3LitwSMZHOG-44" source="af_4JqwX-g0Q7I4TWF5g-37" target="af_4JqwX-g0Q7I4TWF5g-14" edge="1">
          <mxGeometry relative="1" as="geometry"/>
        </mxCell>
        <mxCell id="af_4JqwX-g0Q7I4TWF5g-37" value="" style="shape=mxgraph.cisco.computers_and_peripherals.laptop;html=1;pointerEvents=1;dashed=0;fillColor=#036897;strokeColor=#ffffff;strokeWidth=2;verticalLabelPosition=bottom;verticalAlign=top;align=center;outlineConnect=0;" parent="Bj6Bwo_ux3LitwSMZHOG-44" vertex="1">
          <mxGeometry x="686.3107253207846" y="209.1897758249323" width="116.21442197341607" height="78.76725653397459" as="geometry"/>
        </mxCell>
        <mxCell id="af_4JqwX-g0Q7I4TWF5g-84" value="" style="edgeStyle=orthogonalEdgeStyle;rounded=0;orthogonalLoop=1;jettySize=auto;html=1;endArrow=none;endFill=0;strokeWidth=3;" parent="Bj6Bwo_ux3LitwSMZHOG-44" source="af_4JqwX-g0Q7I4TWF5g-38" target="af_4JqwX-g0Q7I4TWF5g-14" edge="1">
          <mxGeometry relative="1" as="geometry"/>
        </mxCell>
        <mxCell id="af_4JqwX-g0Q7I4TWF5g-38" value="" style="shape=mxgraph.cisco.computers_and_peripherals.laptop;html=1;pointerEvents=1;dashed=0;fillColor=#036897;strokeColor=#ffffff;strokeWidth=2;verticalLabelPosition=bottom;verticalAlign=top;align=center;outlineConnect=0;" parent="Bj6Bwo_ux3LitwSMZHOG-44" vertex="1">
          <mxGeometry x="867.5793981722085" y="209.1897758249323" width="116.21442197341607" height="78.76725653397459" as="geometry"/>
        </mxCell>
        <mxCell id="Bj6Bwo_ux3LitwSMZHOG-19" value="TEAM 3 SUBNET" style="whiteSpace=wrap;html=1;fillColor=#f8cecc;fontSize=14;strokeColor=#b85450;verticalAlign=bottom;flipV=0;flipH=0;align=center;labelPosition=center;verticalLabelPosition=middle;direction=south;" vertex="1" parent="Bj6Bwo_ux3LitwSMZHOG-44">
          <mxGeometry x="1267.382142857143" width="582.6178571428571" height="337.8481757739084" as="geometry"/>
        </mxCell>
        <mxCell id="Bj6Bwo_ux3LitwSMZHOG-20" value="TEAM 3&lt;br&gt;INTERFACE" style="shape=mxgraph.cisco.computers_and_peripherals.pc_adapter_card;html=1;dashed=0;fillColor=#036897;strokeColor=#ffffff;strokeWidth=2;verticalLabelPosition=middle;verticalAlign=top;labelPosition=right;align=left;" vertex="1" parent="Bj6Bwo_ux3LitwSMZHOG-44">
          <mxGeometry x="1516.5982067530792" y="29.70373224751463" width="82.6413667366514" height="111.04891904789861" as="geometry"/>
        </mxCell>
        <mxCell id="Bj6Bwo_ux3LitwSMZHOG-21" style="edgeStyle=orthogonalEdgeStyle;rounded=0;orthogonalLoop=1;jettySize=auto;html=1;endArrow=none;endFill=0;strokeWidth=3;sourcePortConstraint=north;" edge="1" parent="Bj6Bwo_ux3LitwSMZHOG-44" source="Bj6Bwo_ux3LitwSMZHOG-22" target="Bj6Bwo_ux3LitwSMZHOG-20">
          <mxGeometry relative="1" as="geometry"/>
        </mxCell>
        <mxCell id="Bj6Bwo_ux3LitwSMZHOG-22" value="" style="shape=mxgraph.cisco.computers_and_peripherals.laptop;html=1;pointerEvents=1;dashed=0;fillColor=#036897;strokeColor=#ffffff;strokeWidth=2;verticalLabelPosition=bottom;verticalAlign=top;align=center;outlineConnect=0;" vertex="1" parent="Bj6Bwo_ux3LitwSMZHOG-44">
          <mxGeometry x="1687.846613887684" y="209.1897758249323" width="116.21442197341607" height="78.76725653397459" as="geometry"/>
        </mxCell>
        <mxCell id="Bj6Bwo_ux3LitwSMZHOG-23" style="edgeStyle=orthogonalEdgeStyle;rounded=0;orthogonalLoop=1;jettySize=auto;html=1;endArrow=none;endFill=0;strokeWidth=3;targetPortConstraint=west;" edge="1" parent="Bj6Bwo_ux3LitwSMZHOG-44" source="Bj6Bwo_ux3LitwSMZHOG-24" target="Bj6Bwo_ux3LitwSMZHOG-20">
          <mxGeometry relative="1" as="geometry"/>
        </mxCell>
        <mxCell id="Bj6Bwo_ux3LitwSMZHOG-24" value="" style="shape=mxgraph.cisco.computers_and_peripherals.laptop;html=1;pointerEvents=1;dashed=0;fillColor=#036897;strokeColor=#ffffff;strokeWidth=2;verticalLabelPosition=bottom;verticalAlign=top;align=center;outlineConnect=0;" vertex="1" parent="Bj6Bwo_ux3LitwSMZHOG-44">
          <mxGeometry x="1318.5430062832731" y="209.1897758249323" width="116.21442197341607" height="78.76725653397459" as="geometry"/>
        </mxCell>
        <mxCell id="Bj6Bwo_ux3LitwSMZHOG-25" value="" style="edgeStyle=orthogonalEdgeStyle;rounded=0;orthogonalLoop=1;jettySize=auto;html=1;endArrow=none;endFill=0;strokeWidth=3;" edge="1" parent="Bj6Bwo_ux3LitwSMZHOG-44" source="Bj6Bwo_ux3LitwSMZHOG-26" target="Bj6Bwo_ux3LitwSMZHOG-20">
          <mxGeometry relative="1" as="geometry"/>
        </mxCell>
        <mxCell id="Bj6Bwo_ux3LitwSMZHOG-26" value="" style="shape=mxgraph.cisco.computers_and_peripherals.laptop;html=1;pointerEvents=1;dashed=0;fillColor=#036897;strokeColor=#ffffff;strokeWidth=2;verticalLabelPosition=bottom;verticalAlign=top;align=center;outlineConnect=0;" vertex="1" parent="Bj6Bwo_ux3LitwSMZHOG-44">
          <mxGeometry x="1499.811679134697" y="209.1897758249323" width="116.21442197341607" height="78.76725653397459" as="geometry"/>
        </mxCell>
        <mxCell id="Bj6Bwo_ux3LitwSMZHOG-27" value="TEAM 1 SUBNET" style="whiteSpace=wrap;html=1;fillColor=#d5e8d4;fontSize=14;strokeColor=#82b366;verticalAlign=bottom;flipV=0;flipH=0;align=center;labelPosition=center;verticalLabelPosition=middle;direction=south;" vertex="1" parent="Bj6Bwo_ux3LitwSMZHOG-44">
          <mxGeometry y="0.004602734704548267" width="581.0721098670801" height="335.72929014480974" as="geometry"/>
        </mxCell>
        <mxCell id="Bj6Bwo_ux3LitwSMZHOG-28" value="TEAM 1&lt;br&gt;INTERFACE" style="shape=mxgraph.cisco.computers_and_peripherals.pc_adapter_card;html=1;dashed=0;fillColor=#036897;strokeColor=#ffffff;strokeWidth=2;verticalLabelPosition=middle;verticalAlign=top;labelPosition=right;align=left;" vertex="1" parent="Bj6Bwo_ux3LitwSMZHOG-44">
          <mxGeometry x="249.2153715652144" y="29.70373224751463" width="82.6413667366514" height="111.04891904789861" as="geometry"/>
        </mxCell>
        <mxCell id="Bj6Bwo_ux3LitwSMZHOG-29" style="edgeStyle=orthogonalEdgeStyle;rounded=0;orthogonalLoop=1;jettySize=auto;html=1;endArrow=none;endFill=0;strokeWidth=3;sourcePortConstraint=north;" edge="1" parent="Bj6Bwo_ux3LitwSMZHOG-44" source="Bj6Bwo_ux3LitwSMZHOG-30" target="Bj6Bwo_ux3LitwSMZHOG-28">
          <mxGeometry relative="1" as="geometry"/>
        </mxCell>
        <mxCell id="Bj6Bwo_ux3LitwSMZHOG-30" value="" style="shape=mxgraph.cisco.computers_and_peripherals.laptop;html=1;pointerEvents=1;dashed=0;fillColor=#036897;strokeColor=#ffffff;strokeWidth=2;verticalLabelPosition=bottom;verticalAlign=top;align=center;outlineConnect=0;" vertex="1" parent="Bj6Bwo_ux3LitwSMZHOG-44">
          <mxGeometry x="420.4637786998193" y="209.1897758249323" width="116.21442197341607" height="78.76725653397459" as="geometry"/>
        </mxCell>
        <mxCell id="Bj6Bwo_ux3LitwSMZHOG-31" style="edgeStyle=orthogonalEdgeStyle;rounded=0;orthogonalLoop=1;jettySize=auto;html=1;endArrow=none;endFill=0;strokeWidth=3;targetPortConstraint=west;" edge="1" parent="Bj6Bwo_ux3LitwSMZHOG-44" source="Bj6Bwo_ux3LitwSMZHOG-32" target="Bj6Bwo_ux3LitwSMZHOG-28">
          <mxGeometry relative="1" as="geometry"/>
        </mxCell>
        <mxCell id="Bj6Bwo_ux3LitwSMZHOG-32" value="" style="shape=mxgraph.cisco.computers_and_peripherals.laptop;html=1;pointerEvents=1;dashed=0;fillColor=#036897;strokeColor=#ffffff;strokeWidth=2;verticalLabelPosition=bottom;verticalAlign=top;align=center;outlineConnect=0;" vertex="1" parent="Bj6Bwo_ux3LitwSMZHOG-44">
          <mxGeometry x="51.160171095408266" y="209.1897758249323" width="116.21442197341607" height="78.76725653397459" as="geometry"/>
        </mxCell>
        <mxCell id="Bj6Bwo_ux3LitwSMZHOG-33" value="" style="edgeStyle=orthogonalEdgeStyle;rounded=0;orthogonalLoop=1;jettySize=auto;html=1;endArrow=none;endFill=0;strokeWidth=3;" edge="1" parent="Bj6Bwo_ux3LitwSMZHOG-44" source="Bj6Bwo_ux3LitwSMZHOG-34" target="Bj6Bwo_ux3LitwSMZHOG-28">
          <mxGeometry relative="1" as="geometry"/>
        </mxCell>
        <mxCell id="Bj6Bwo_ux3LitwSMZHOG-34" value="" style="shape=mxgraph.cisco.computers_and_peripherals.laptop;html=1;pointerEvents=1;dashed=0;fillColor=#036897;strokeColor=#ffffff;strokeWidth=2;verticalLabelPosition=bottom;verticalAlign=top;align=center;outlineConnect=0;" vertex="1" parent="Bj6Bwo_ux3LitwSMZHOG-44">
          <mxGeometry x="232.42884394683213" y="209.1897758249323" width="116.21442197341607" height="78.76725653397459" as="geometry"/>
        </mxCell>
        <mxCell id="Bj6Bwo_ux3LitwSMZHOG-45" value="" style="group" vertex="1" connectable="0" parent="1">
          <mxGeometry x="489.03683393658383" y="25.410000000000004" width="1298.864030829108" height="335.72929014480974" as="geometry"/>
        </mxCell>
        <mxCell id="af_4JqwX-g0Q7I4TWF5g-31" value="MANAGEMENT SUBNET" style="whiteSpace=wrap;html=1;fillColor=#dae8fc;fontSize=14;strokeColor=#6c8ebf;verticalAlign=top;" parent="Bj6Bwo_ux3LitwSMZHOG-45" vertex="1">
          <mxGeometry x="717.7919209620277" width="581.0721098670801" height="335.72929014480974" as="geometry"/>
        </mxCell>
        <mxCell id="af_4JqwX-g0Q7I4TWF5g-11" value="MANAGEMENT&lt;br&gt;INTERFACE" style="shape=mxgraph.cisco.computers_and_peripherals.pc_adapter_card;html=1;dashed=0;fillColor=#036897;strokeColor=#ffffff;strokeWidth=2;verticalLabelPosition=bottom;verticalAlign=top" parent="Bj6Bwo_ux3LitwSMZHOG-45" vertex="1">
          <mxGeometry x="963.1334784614621" y="175.61224407574664" width="82.6413667366514" height="111.04891904789861" as="geometry"/>
        </mxCell>
        <mxCell id="af_4JqwX-g0Q7I4TWF5g-20" value="" style="shape=mxgraph.cisco.computers_and_peripherals.pc;html=1;pointerEvents=1;dashed=0;fillColor=#036897;strokeColor=#ffffff;strokeWidth=2;verticalLabelPosition=bottom;verticalAlign=top;align=center;outlineConnect=0;" parent="Bj6Bwo_ux3LitwSMZHOG-45" vertex="1">
          <mxGeometry x="954.0945789746407" y="29.699129512810092" width="100.71916571029392" height="90.38865503898724" as="geometry"/>
        </mxCell>
        <mxCell id="af_4JqwX-g0Q7I4TWF5g-91" value="" style="edgeStyle=orthogonalEdgeStyle;rounded=0;orthogonalLoop=1;jettySize=auto;html=1;endArrow=none;endFill=0;strokeWidth=3;" parent="Bj6Bwo_ux3LitwSMZHOG-45" source="af_4JqwX-g0Q7I4TWF5g-11" target="af_4JqwX-g0Q7I4TWF5g-20" edge="1">
          <mxGeometry relative="1" as="geometry"/>
        </mxCell>
        <mxCell id="af_4JqwX-g0Q7I4TWF5g-29" value="&lt;span style=&quot;color: rgba(0 , 0 , 0 , 0) ; font-family: monospace ; font-size: 0px&quot;&gt;%3CmxGraphModel%3E%3Croot%3E%3CmxCell%20id%3D%220%22%2F%3E%3CmxCell%20id%3D%221%22%20parent%3D%220%22%2F%3E%3CmxCell%20id%3D%222%22%20value%3D%22Enterprise%20Networks%22%20style%3D%22whiteSpace%3Dwrap%3Bhtml%3D1%3BfillColor%3D%23FFD470%3BgradientColor%3Dnone%3BfontSize%3D14%3BstrokeColor%3Dnone%3BverticalAlign%3Dtop%3B%22%20vertex%3D%221%22%20parent%3D%221%22%3E%3CmxGeometry%20x%3D%22170%22%20y%3D%22100%22%20width%3D%22317%22%20height%3D%22678%22%20as%3D%22geometry%22%2F%3E%3C%2FmxCell%3E%3C%2Froot%3E%3C%2FmxGraphModel%3E&lt;/span&gt;" style="text;html=1;align=center;verticalAlign=middle;resizable=0;points=[];autosize=1;" parent="Bj6Bwo_ux3LitwSMZHOG-45" vertex="1">
          <mxGeometry x="113.47692670026453" y="296.99129512810094" width="20" height="20" as="geometry"/>
        </mxCell>
        <mxCell id="Bj6Bwo_ux3LitwSMZHOG-39" value="UPLINK&lt;br&gt;INTERFACE" style="shape=mxgraph.cisco.computers_and_peripherals.pc_adapter_card;html=1;dashed=0;fillColor=#036897;strokeColor=#ffffff;strokeWidth=2;verticalLabelPosition=bottom;verticalAlign=top" vertex="1" parent="Bj6Bwo_ux3LitwSMZHOG-45">
          <mxGeometry y="175.61224407574664" width="82.6413667366514" height="111.04891904789861" as="geometry"/>
        </mxCell>
      </root>
    </mxGraphModel>
  </diagram>
</mxfile>
